User Type,Username,Date,Text
,razzell2,2010-05-18T15:43Z,"Thank you. Never got a chance to see the movie, ever! I have every cut PF ever recorded, but never saw this movie.
Hope this is a good dl, since there are no comments, I have no idea.
Plenty of seeders though, so Im guessing its a good version."
,Undertaker74,2010-05-29T06:21Z,good move A/10 V/10 you can trust him 
,djstarzxupp,2010-12-12T04:54Z,"Alot of seeders, fast download."
,Scandale,2010-12-18T16:31Z,"General
Format                           : AVI
Format/Info                      : Audio Video Interleave
File size                        : 1.47 GiB
Duration                         : 1h 35mn
Overall bit rate                 : 2 210 Kbps
Writing application              : VirtualDubMod 1.5.4.1 (build 2178/release)
Writing library                  : VirtualDubMod build 2178/release

Video
ID                               : 0
Format                           : MPEG-4 Visual
Format profile                   : Advanced Simple@L5
Format settings, BVOP            : Yes
Format settings, QPel            : No
Format settings, GMC             : No warppoints
Format settings, Matrix          : Custom
Codec ID                         : XVID
Codec ID/Hint                    : XviD
Duration                         : 1h 35mn
Bit rate                         : 1 755 Kbps
Width                            : 720 pixels
Height                           : 320 pixels
Display aspect ratio             : 2.25:1
Frame rate                       : 23.976 fps
Color space                      : YUV
Chroma subsampling               : 4:2:0
Bit depth                        : 8 bits
Scan type                        : Progressive
Bits/(Pixel*Frame)               : 0.318
Stream size                      : 1.17 GiB (79%)
Writing library                  : XviD 1.2.1 (UTC 2008-12-04)

Audio
ID                               : 1
Format                           : AC-3
Format/Info                      : Audio Coding 3
Mode extension                   : CM (complete main)
Codec ID                         : 2000
Duration                         : 1h 35mn
Bit rate mode                    : Constant
Bit rate                         : 448 Kbps
Channel(s)                       : 6 channels
Channel positions                : Front: L C R, Side: L R, LFE
Sampling rate                    : 48.0 KHz
Bit depth                        : 16 bits
Stream size                      : 305 MiB (20%)
Alignment                        : Split accross interleaves
Interleave, duration             : 96 ms (2.30 video frames)
Interleave, preload duration     : 96 ms"
,apocolist,2010-12-29T11:49Z,"Sweet. Just shelled out a paycheck to see Roger Waters on tour, so I do not feel guilty about downloading my music and media for free. haha"
,Cock_Pushup,2011-08-03T05:04Z,"Never seen this movie believe it or not. Question: does Floyd die at the end?

BWAHAHA"
,evilg0d,2012-03-09T15:33Z,Thank you for sharing this. I really appreciate it.
